<?xml version="1.0" encoding="UTF-8"?>
<svg xmlns="http://www.w3.org/2000/svg" xmlns:xlink="http://www.w3.org/1999/xlink" width="37px" height="42px" viewBox="0 0 37 42" version="1.1">
<g id="surface1">
<path style=" stroke:none;fill-rule:nonzero;fill:rgb(0%,0%,0%);fill-opacity:1;" d="M 18.265625 0.0351562 C 18.105469 0.078125 17.882812 0.292969 17.796875 0.472656 C 17.71875 0.636719 17.71875 0.664062 17.71875 1.585938 L 17.71875 2.53125 L 17.578125 2.429688 C 17.238281 2.191406 16.789062 2.308594 16.617188 2.675781 C 16.542969 2.839844 16.542969 3 16.617188 3.160156 C 16.648438 3.234375 16.886719 3.496094 17.195312 3.804688 L 17.71875 4.316406 L 17.71875 6.609375 L 16.796875 5.707031 C 16.027344 4.953125 15.851562 4.796875 15.738281 4.765625 C 15.574219 4.714844 15.542969 4.714844 15.382812 4.761719 C 15.242188 4.800781 15.050781 4.953125 14.976562 5.089844 C 14.917969 5.207031 14.917969 5.484375 14.976562 5.621094 C 15.003906 5.679688 15.613281 6.308594 16.371094 7.054688 L 17.71875 8.382812 L 17.71875 10.679688 L 15.984375 8.96875 C 15.03125 8.027344 14.207031 7.238281 14.15625 7.222656 C 14.003906 7.164062 13.746094 7.179688 13.601562 7.25 C 13.335938 7.386719 13.207031 7.734375 13.316406 8.015625 C 13.359375 8.128906 13.800781 8.582031 15.542969 10.304688 L 17.71875 12.453125 L 17.71875 13.574219 C 17.71875 14.195312 17.707031 14.699219 17.691406 14.699219 C 17.675781 14.699219 16.539062 13.585938 15.164062 12.21875 C 13.785156 10.859375 12.613281 9.714844 12.558594 9.691406 C 12.503906 9.660156 12.40625 9.628906 12.34375 9.617188 C 12.226562 9.597656 12.226562 9.59375 12.199219 9.382812 C 12.121094 8.746094 12.285156 7.933594 12.570312 7.558594 L 12.699219 7.390625 L 12.597656 7.417969 C 12.179688 7.535156 11.425781 7.3125 10.761719 6.871094 C 10.429688 6.648438 9.945312 6.207031 9.738281 5.9375 C 9.65625 5.824219 9.589844 5.742188 9.589844 5.75 C 9.589844 5.753906 9.632812 5.863281 9.683594 5.992188 C 9.90625 6.53125 10 7.09375 9.976562 7.761719 C 9.953125 8.441406 9.839844 8.824219 9.566406 9.125 L 9.445312 9.257812 L 9.542969 9.230469 C 9.59375 9.21875 9.765625 9.207031 9.921875 9.210938 C 10.417969 9.21875 10.933594 9.429688 11.617188 9.914062 C 11.636719 9.921875 11.625 9.984375 11.59375 10.050781 C 11.570312 10.117188 11.546875 10.210938 11.546875 10.265625 C 11.546875 10.3125 11.753906 11.125 12.007812 12.058594 C 12.261719 12.996094 12.675781 14.523438 12.921875 15.449219 C 13.175781 16.375 13.375 17.136719 13.363281 17.144531 C 13.355469 17.15625 12.910156 16.910156 12.371094 16.605469 L 11.398438 16.050781 L 11.261719 15.546875 C 11.183594 15.269531 10.828125 13.957031 10.46875 12.632812 C 10.058594 11.117188 9.789062 10.183594 9.746094 10.121094 C 9.617188 9.933594 9.472656 9.859375 9.21875 9.859375 C 9.019531 9.859375 8.984375 9.871094 8.871094 9.960938 C 8.601562 10.175781 8.539062 10.378906 8.636719 10.722656 C 9.03125 12.148438 9.820312 15.105469 9.808594 15.117188 C 9.789062 15.132812 7.949219 14.097656 7.875 14.03125 C 7.851562 14.007812 7.613281 13.1875 7.34375 12.207031 C 7.019531 11.003906 6.839844 10.378906 6.785156 10.300781 C 6.5625 9.957031 5.980469 9.964844 5.75 10.304688 C 5.589844 10.546875 5.601562 10.625 5.957031 11.925781 C 6.132812 12.570312 6.269531 13.105469 6.265625 13.109375 C 6.257812 13.113281 5.824219 12.867188 5.292969 12.5625 C 4.765625 12.261719 4.320312 12.007812 4.304688 12.003906 C 4.292969 11.996094 4.195312 11.671875 4.085938 11.28125 C 3.878906 10.511719 3.820312 10.390625 3.597656 10.285156 C 3.324219 10.160156 3 10.238281 2.808594 10.476562 C 2.714844 10.59375 2.703125 10.625 2.703125 10.84375 C 2.703125 11.046875 2.699219 11.082031 2.652344 11.058594 C 2.628906 11.042969 2.28125 10.847656 1.890625 10.625 C 1.5 10.402344 1.128906 10.199219 1.066406 10.179688 C 1.003906 10.15625 0.867188 10.140625 0.761719 10.140625 C 0.0703125 10.140625 -0.253906 10.949219 0.246094 11.433594 C 0.320312 11.507812 0.648438 11.714844 0.964844 11.894531 C 1.28125 12.070312 1.632812 12.269531 1.738281 12.332031 L 1.933594 12.445312 L 1.808594 12.488281 C 1.433594 12.617188 1.265625 13.054688 1.464844 13.390625 C 1.582031 13.585938 1.78125 13.695312 2.007812 13.695312 C 2.101562 13.691406 2.449219 13.617188 2.785156 13.523438 C 3.125 13.429688 3.425781 13.355469 3.464844 13.355469 C 3.523438 13.355469 5.34375 14.371094 5.441406 14.457031 C 5.480469 14.496094 5.480469 14.503906 5.441406 14.503906 C 5.339844 14.503906 3.128906 15.105469 3.011719 15.164062 C 2.617188 15.359375 2.585938 15.945312 2.953125 16.207031 C 3.175781 16.363281 3.292969 16.363281 3.914062 16.195312 C 4.941406 15.925781 6.949219 15.390625 7.007812 15.382812 C 7.070312 15.371094 9.03125 16.476562 8.996094 16.507812 C 8.984375 16.519531 8.042969 16.777344 6.902344 17.074219 C 4.265625 17.769531 4.320312 17.753906 4.191406 17.890625 C 4.132812 17.949219 4.066406 18.039062 4.050781 18.089844 C 4 18.21875 4.003906 18.453125 4.0625 18.582031 C 4.15625 18.816406 4.488281 18.996094 4.722656 18.949219 C 4.78125 18.9375 5.125 18.847656 5.492188 18.75 C 8.957031 17.828125 10.511719 17.421875 10.570312 17.417969 C 10.648438 17.410156 12.585938 18.507812 12.550781 18.542969 C 12.535156 18.554688 11.785156 18.757812 10.882812 19 C 6.503906 20.152344 5.78125 20.347656 5.691406 20.382812 C 5.636719 20.40625 5.539062 20.476562 5.472656 20.546875 L 5.351562 20.667969 L 5.140625 20.570312 C 4.457031 20.25 3.863281 19.707031 3.734375 19.28125 C 3.695312 19.167969 3.6875 19.15625 3.667969 19.210938 C 3.445312 19.820312 2.828125 20.347656 1.910156 20.703125 C 1.613281 20.820312 1.03125 20.96875 0.871094 20.96875 C 0.8125 20.96875 0.761719 20.980469 0.761719 21 C 0.761719 21.015625 0.804688 21.03125 0.859375 21.03125 C 1.003906 21.03125 1.398438 21.121094 1.683594 21.214844 C 2.6875 21.546875 3.445312 22.152344 3.667969 22.789062 C 3.683594 22.839844 3.699219 22.820312 3.746094 22.6875 C 3.886719 22.261719 4.464844 21.746094 5.140625 21.429688 L 5.351562 21.332031 L 5.472656 21.453125 C 5.539062 21.523438 5.636719 21.59375 5.691406 21.617188 C 5.777344 21.652344 7.476562 22.101562 11.398438 23.136719 C 12.015625 23.300781 12.535156 23.445312 12.550781 23.457031 C 12.582031 23.488281 10.652344 24.589844 10.582031 24.585938 C 10.550781 24.582031 10.050781 24.457031 9.46875 24.300781 C 6.125 23.417969 4.816406 23.070312 4.722656 23.050781 C 4.5 23.003906 4.179688 23.171875 4.0625 23.398438 C 4 23.511719 4 23.792969 4.0625 23.929688 C 4.140625 24.117188 4.285156 24.214844 4.617188 24.3125 C 4.789062 24.363281 5.847656 24.644531 6.972656 24.941406 C 8.101562 25.234375 9.023438 25.484375 9.023438 25.496094 C 9.019531 25.503906 8.578125 25.765625 8.035156 26.074219 L 7.050781 26.632812 L 6.585938 26.511719 C 6.332031 26.445312 5.496094 26.222656 4.734375 26.019531 C 3.203125 25.617188 3.203125 25.617188 2.953125 25.796875 C 2.5625 26.074219 2.621094 26.664062 3.0625 26.855469 C 3.160156 26.894531 3.738281 27.058594 4.351562 27.222656 C 5.183594 27.4375 5.460938 27.523438 5.429688 27.550781 C 5.347656 27.621094 3.523438 28.644531 3.472656 28.644531 C 3.445312 28.644531 3.140625 28.570312 2.796875 28.476562 C 2.078125 28.28125 1.90625 28.269531 1.699219 28.382812 C 1.230469 28.644531 1.296875 29.339844 1.808594 29.511719 L 1.929688 29.554688 L 1.15625 29.992188 C 0.707031 30.25 0.324219 30.488281 0.246094 30.566406 C -0.253906 31.054688 0.0703125 31.859375 0.761719 31.859375 C 0.867188 31.859375 1.003906 31.84375 1.066406 31.820312 C 1.128906 31.800781 1.488281 31.605469 1.875 31.386719 C 2.257812 31.164062 2.601562 30.96875 2.636719 30.953125 C 2.699219 30.914062 2.703125 30.925781 2.703125 31.15625 C 2.703125 31.375 2.714844 31.40625 2.808594 31.523438 C 3.007812 31.769531 3.332031 31.839844 3.609375 31.699219 C 3.824219 31.59375 3.890625 31.453125 4.09375 30.695312 C 4.195312 30.320312 4.289062 30.003906 4.304688 29.996094 C 4.320312 29.992188 4.765625 29.738281 5.292969 29.4375 C 5.824219 29.132812 6.257812 28.886719 6.265625 28.890625 C 6.269531 28.894531 6.132812 29.429688 5.957031 30.074219 C 5.601562 31.375 5.589844 31.453125 5.75 31.695312 C 5.980469 32.035156 6.5625 32.042969 6.785156 31.699219 C 6.839844 31.621094 7.015625 31.007812 7.332031 29.84375 C 7.585938 28.886719 7.8125 28.074219 7.828125 28.035156 C 7.855469 27.964844 9.773438 26.851562 9.808594 26.882812 C 9.820312 26.894531 9.039062 29.824219 8.636719 31.277344 C 8.539062 31.621094 8.601562 31.824219 8.871094 32.039062 C 8.984375 32.128906 9.019531 32.140625 9.21875 32.140625 C 9.402344 32.140625 9.464844 32.125 9.5625 32.0625 C 9.796875 31.898438 9.679688 32.289062 11.234375 26.535156 L 11.394531 25.953125 L 12.367188 25.394531 C 12.90625 25.089844 13.355469 24.84375 13.363281 24.851562 C 13.375 24.863281 12.972656 26.375 12.476562 28.207031 C 11.976562 30.046875 11.5625 31.609375 11.554688 31.679688 C 11.546875 31.761719 11.558594 31.863281 11.59375 31.941406 C 11.621094 32.007812 11.644531 32.066406 11.644531 32.074219 C 11.644531 32.097656 11.15625 32.398438 10.953125 32.496094 C 10.5625 32.695312 10.238281 32.78125 9.921875 32.789062 C 9.765625 32.792969 9.59375 32.78125 9.542969 32.769531 L 9.445312 32.742188 L 9.570312 32.882812 C 9.835938 33.171875 9.953125 33.5625 9.976562 34.238281 C 10 34.90625 9.90625 35.46875 9.683594 36.007812 C 9.632812 36.136719 9.589844 36.246094 9.589844 36.25 C 9.589844 36.257812 9.65625 36.175781 9.738281 36.066406 C 9.949219 35.789062 10.433594 35.34375 10.757812 35.128906 C 11.433594 34.6875 12.179688 34.464844 12.597656 34.582031 L 12.699219 34.609375 L 12.570312 34.441406 C 12.433594 34.257812 12.296875 33.925781 12.242188 33.636719 C 12.191406 33.363281 12.167969 32.851562 12.199219 32.617188 C 12.226562 32.40625 12.226562 32.402344 12.34375 32.382812 C 12.40625 32.371094 12.503906 32.339844 12.558594 32.308594 C 12.613281 32.285156 13.785156 31.140625 15.164062 29.78125 C 16.539062 28.414062 17.675781 27.300781 17.691406 27.300781 C 17.707031 27.300781 17.71875 27.804688 17.71875 28.425781 L 17.71875 29.546875 L 15.558594 31.679688 C 14.089844 33.128906 13.378906 33.855469 13.335938 33.945312 C 13.140625 34.351562 13.441406 34.8125 13.890625 34.8125 C 13.992188 34.8125 14.117188 34.792969 14.175781 34.761719 C 14.238281 34.730469 15.054688 33.949219 16 33.015625 L 17.71875 31.320312 L 17.71875 33.617188 L 16.371094 34.945312 C 15.613281 35.691406 15.003906 36.320312 14.976562 36.378906 C 14.917969 36.515625 14.917969 36.792969 14.976562 36.910156 C 15.113281 37.171875 15.417969 37.308594 15.707031 37.238281 C 15.867188 37.203125 15.917969 37.15625 16.796875 36.296875 L 17.71875 35.390625 L 17.71875 37.648438 L 17.203125 38.164062 C 16.550781 38.816406 16.460938 38.992188 16.617188 39.324219 C 16.789062 39.691406 17.238281 39.808594 17.574219 39.570312 L 17.714844 39.472656 L 17.722656 40.449219 C 17.734375 41.382812 17.738281 41.433594 17.804688 41.558594 C 17.941406 41.8125 18.238281 42 18.496094 42 C 18.753906 42 19.050781 41.8125 19.1875 41.558594 C 19.257812 41.433594 19.261719 41.382812 19.269531 40.453125 L 19.28125 39.476562 L 19.414062 39.570312 C 19.746094 39.808594 20.207031 39.691406 20.375 39.324219 C 20.53125 38.988281 20.441406 38.8125 19.789062 38.164062 L 19.277344 37.652344 L 19.277344 35.390625 L 20.199219 36.296875 C 21.074219 37.15625 21.125 37.203125 21.285156 37.238281 C 21.574219 37.308594 21.878906 37.171875 22.015625 36.910156 C 22.078125 36.792969 22.078125 36.515625 22.015625 36.378906 C 21.992188 36.320312 21.378906 35.691406 20.625 34.945312 L 19.277344 33.617188 L 19.277344 31.320312 L 20.996094 33.015625 C 21.9375 33.949219 22.757812 34.730469 22.816406 34.761719 C 22.875 34.792969 23.003906 34.8125 23.101562 34.8125 C 23.554688 34.8125 23.851562 34.351562 23.660156 33.945312 C 23.617188 33.855469 22.902344 33.128906 21.4375 31.679688 L 19.277344 29.546875 L 19.277344 28.425781 C 19.277344 27.804688 19.285156 27.300781 19.304688 27.300781 C 19.316406 27.300781 20.453125 28.414062 21.832031 29.78125 C 23.207031 31.140625 24.382812 32.285156 24.433594 32.308594 C 24.492188 32.339844 24.589844 32.371094 24.652344 32.382812 C 24.765625 32.402344 24.765625 32.40625 24.792969 32.617188 C 24.875 33.253906 24.707031 34.066406 24.421875 34.441406 L 24.292969 34.609375 L 24.394531 34.582031 C 25.105469 34.382812 26.542969 35.128906 27.253906 36.066406 C 27.339844 36.175781 27.40625 36.257812 27.40625 36.25 C 27.40625 36.246094 27.363281 36.136719 27.3125 36.011719 C 27.078125 35.449219 26.988281 34.914062 27.015625 34.230469 C 27.039062 33.5625 27.15625 33.171875 27.425781 32.882812 L 27.546875 32.742188 L 27.453125 32.769531 C 27.398438 32.78125 27.230469 32.792969 27.074219 32.789062 C 26.753906 32.78125 26.429688 32.695312 26.042969 32.496094 C 25.839844 32.398438 25.347656 32.097656 25.347656 32.074219 C 25.347656 32.066406 25.371094 32.011719 25.398438 31.949219 C 25.425781 31.882812 25.449219 31.789062 25.449219 31.734375 C 25.449219 31.6875 25.238281 30.875 24.984375 29.941406 C 24.730469 29.003906 24.320312 27.476562 24.070312 26.550781 C 23.820312 25.625 23.621094 24.863281 23.628906 24.851562 C 23.640625 24.84375 24.085938 25.089844 24.621094 25.394531 L 25.597656 25.953125 L 26.386719 28.863281 C 26.886719 30.710938 27.203125 31.816406 27.246094 31.878906 C 27.519531 32.277344 28.113281 32.226562 28.332031 31.792969 C 28.421875 31.617188 28.417969 31.5 28.289062 31.019531 C 27.460938 27.988281 27.171875 26.894531 27.1875 26.882812 C 27.21875 26.851562 29.136719 27.964844 29.167969 28.035156 C 29.179688 28.074219 29.40625 28.886719 29.660156 29.84375 C 29.976562 31.007812 30.15625 31.621094 30.207031 31.699219 C 30.429688 32.042969 31.015625 32.035156 31.242188 31.695312 C 31.402344 31.453125 31.394531 31.375 31.039062 30.074219 C 30.863281 29.429688 30.722656 28.898438 30.730469 28.890625 C 30.734375 28.886719 31.175781 29.132812 31.703125 29.4375 C 32.230469 29.738281 32.671875 29.992188 32.6875 29.996094 C 32.699219 30.003906 32.796875 30.316406 32.898438 30.695312 C 33.003906 31.074219 33.113281 31.433594 33.152344 31.488281 C 33.292969 31.722656 33.585938 31.828125 33.863281 31.746094 C 34.152344 31.660156 34.324219 31.410156 34.300781 31.101562 C 34.285156 30.917969 34.289062 30.914062 34.351562 30.949219 C 34.390625 30.96875 34.738281 31.164062 35.117188 31.386719 C 35.503906 31.605469 35.867188 31.800781 35.929688 31.820312 C 35.992188 31.84375 36.128906 31.859375 36.230469 31.859375 C 36.921875 31.859375 37.246094 31.054688 36.746094 30.566406 C 36.667969 30.488281 36.285156 30.25 35.835938 29.992188 L 35.0625 29.554688 L 35.183594 29.511719 C 35.441406 29.425781 35.609375 29.191406 35.609375 28.921875 C 35.609375 28.574219 35.332031 28.300781 34.984375 28.308594 C 34.898438 28.308594 34.539062 28.382812 34.195312 28.476562 C 33.851562 28.570312 33.550781 28.644531 33.519531 28.644531 C 33.472656 28.644531 31.730469 27.667969 31.574219 27.554688 C 31.527344 27.519531 31.679688 27.46875 32.636719 27.222656 C 33.253906 27.058594 33.835938 26.894531 33.929688 26.855469 C 34.371094 26.664062 34.433594 26.074219 34.039062 25.796875 C 33.792969 25.617188 33.789062 25.617188 32.257812 26.019531 C 31.496094 26.222656 30.664062 26.445312 30.40625 26.511719 L 29.941406 26.632812 L 28.957031 26.074219 C 28.414062 25.765625 27.972656 25.503906 27.96875 25.496094 C 27.96875 25.484375 28.890625 25.234375 30.019531 24.941406 C 31.144531 24.644531 32.207031 24.363281 32.375 24.3125 C 32.710938 24.214844 32.851562 24.117188 32.933594 23.929688 C 32.992188 23.792969 32.992188 23.511719 32.933594 23.398438 C 32.8125 23.171875 32.496094 23.003906 32.273438 23.050781 C 32.175781 23.070312 30.867188 23.417969 27.523438 24.300781 C 26.945312 24.457031 26.441406 24.582031 26.414062 24.585938 C 26.339844 24.589844 24.414062 23.488281 24.441406 23.457031 C 24.457031 23.445312 24.976562 23.300781 25.597656 23.136719 C 26.21875 22.976562 27.539062 22.625 28.53125 22.363281 C 29.527344 22.097656 30.542969 21.832031 30.789062 21.765625 C 31.300781 21.632812 31.394531 21.589844 31.539062 21.4375 L 31.640625 21.324219 L 31.925781 21.472656 C 32.640625 21.839844 33.105469 22.269531 33.246094 22.6875 C 33.292969 22.820312 33.3125 22.839844 33.328125 22.789062 C 33.503906 22.28125 34 21.804688 34.71875 21.460938 C 35.210938 21.222656 35.84375 21.03125 36.132812 21.03125 C 36.1875 21.03125 36.230469 21.015625 36.230469 21 C 36.230469 20.980469 36.179688 20.96875 36.125 20.96875 C 35.960938 20.96875 35.382812 20.820312 35.082031 20.703125 C 34.167969 20.347656 33.546875 19.820312 33.328125 19.210938 C 33.308594 19.15625 33.296875 19.167969 33.261719 19.28125 C 33.132812 19.699219 32.648438 20.15625 31.929688 20.527344 L 31.644531 20.675781 L 31.523438 20.546875 C 31.457031 20.476562 31.355469 20.40625 31.300781 20.382812 C 31.210938 20.347656 30.101562 20.050781 26.09375 18.996094 C 25.203125 18.757812 24.457031 18.554688 24.441406 18.542969 C 24.429688 18.527344 24.859375 18.265625 25.398438 17.957031 L 26.378906 17.398438 L 26.917969 17.539062 C 27.210938 17.613281 28.386719 17.925781 29.527344 18.226562 C 32.539062 19.027344 32.339844 18.980469 32.507812 18.9375 C 32.675781 18.890625 32.871094 18.726562 32.933594 18.582031 C 32.988281 18.453125 32.992188 18.21875 32.941406 18.089844 C 32.925781 18.039062 32.859375 17.949219 32.804688 17.890625 C 32.671875 17.753906 32.726562 17.769531 30.09375 17.074219 C 28.949219 16.777344 28.007812 16.519531 27.996094 16.507812 C 27.960938 16.476562 29.921875 15.371094 29.984375 15.382812 C 30.042969 15.390625 32.054688 15.925781 33.078125 16.195312 C 33.703125 16.363281 33.816406 16.363281 34.039062 16.207031 C 34.410156 15.945312 34.375 15.359375 33.980469 15.164062 C 33.863281 15.105469 31.652344 14.503906 31.550781 14.503906 C 31.511719 14.503906 31.511719 14.496094 31.550781 14.457031 C 31.648438 14.371094 33.46875 13.355469 33.53125 13.355469 C 33.566406 13.355469 33.867188 13.429688 34.207031 13.523438 C 34.921875 13.722656 35.089844 13.734375 35.304688 13.609375 C 35.761719 13.34375 35.691406 12.660156 35.183594 12.488281 L 35.058594 12.445312 L 35.253906 12.332031 C 35.359375 12.269531 35.710938 12.070312 36.027344 11.894531 C 36.347656 11.714844 36.671875 11.507812 36.746094 11.433594 C 37.246094 10.949219 36.921875 10.140625 36.230469 10.140625 C 36.128906 10.140625 35.992188 10.15625 35.929688 10.179688 C 35.867188 10.199219 35.5 10.398438 35.109375 10.621094 C 34.71875 10.84375 34.371094 11.042969 34.34375 11.058594 C 34.292969 11.085938 34.285156 11.066406 34.300781 10.898438 C 34.324219 10.582031 34.152344 10.335938 33.851562 10.25 C 33.574219 10.171875 33.292969 10.273438 33.152344 10.511719 C 33.113281 10.566406 33.003906 10.921875 32.898438 11.304688 C 32.796875 11.679688 32.699219 11.996094 32.6875 12.003906 C 32.671875 12.007812 32.230469 12.261719 31.703125 12.5625 C 31.175781 12.867188 30.734375 13.113281 30.730469 13.109375 C 30.722656 13.101562 30.863281 12.570312 31.039062 11.925781 C 31.394531 10.625 31.402344 10.546875 31.242188 10.304688 C 31.015625 9.964844 30.429688 9.957031 30.207031 10.300781 C 30.15625 10.378906 29.972656 11.003906 29.648438 12.207031 C 29.378906 13.1875 29.144531 14.007812 29.121094 14.03125 C 29.042969 14.097656 27.203125 15.132812 27.1875 15.117188 C 27.175781 15.105469 27.445312 14.078125 27.78125 12.832031 C 28.125 11.582031 28.398438 10.511719 28.398438 10.449219 C 28.398438 10.304688 28.300781 10.105469 28.171875 9.996094 C 27.882812 9.757812 27.453125 9.816406 27.246094 10.121094 C 27.203125 10.183594 26.890625 11.277344 26.386719 13.136719 L 25.601562 16.046875 L 25.347656 16.191406 C 24.117188 16.898438 23.640625 17.160156 23.628906 17.144531 C 23.621094 17.136719 23.992188 15.738281 24.453125 14.039062 C 25.550781 9.976562 25.46875 10.300781 25.425781 10.148438 C 25.40625 10.078125 25.382812 10 25.367188 9.972656 C 25.324219 9.875 26.035156 9.464844 26.53125 9.300781 C 26.804688 9.210938 27.253906 9.175781 27.453125 9.230469 L 27.550781 9.257812 L 27.441406 9.148438 C 27.3125 9.015625 27.160156 8.71875 27.085938 8.449219 C 27.011719 8.1875 26.988281 7.371094 27.035156 7.015625 C 27.085938 6.671875 27.1875 6.28125 27.3125 5.988281 C 27.363281 5.859375 27.40625 5.753906 27.40625 5.75 C 27.40625 5.742188 27.339844 5.824219 27.253906 5.9375 C 27.046875 6.207031 26.566406 6.648438 26.230469 6.871094 C 25.566406 7.3125 24.8125 7.535156 24.394531 7.417969 L 24.292969 7.390625 L 24.410156 7.539062 C 24.617188 7.808594 24.726562 8.125 24.789062 8.632812 C 24.832031 9.003906 24.800781 9.578125 24.742188 9.597656 C 24.71875 9.605469 24.640625 9.617188 24.566406 9.628906 C 24.445312 9.648438 24.238281 9.84375 21.878906 12.175781 C 20.472656 13.566406 19.3125 14.699219 19.300781 14.699219 C 19.285156 14.699219 19.277344 14.195312 19.277344 13.574219 L 19.277344 12.453125 L 21.449219 10.304688 C 23.191406 8.582031 23.632812 8.128906 23.675781 8.015625 C 23.785156 7.734375 23.65625 7.386719 23.390625 7.25 C 23.246094 7.179688 22.988281 7.164062 22.835938 7.222656 C 22.785156 7.238281 21.964844 8.027344 21.011719 8.96875 L 19.277344 10.679688 L 19.277344 8.382812 L 20.625 7.054688 C 21.378906 6.308594 21.992188 5.679688 22.015625 5.621094 C 22.078125 5.484375 22.078125 5.207031 22.015625 5.089844 C 21.945312 4.953125 21.75 4.800781 21.609375 4.761719 C 21.449219 4.714844 21.417969 4.714844 21.253906 4.765625 C 21.140625 4.796875 20.964844 4.953125 20.199219 5.707031 L 19.277344 6.609375 L 19.277344 4.316406 L 19.800781 3.800781 C 20.097656 3.503906 20.34375 3.230469 20.378906 3.160156 C 20.449219 3 20.449219 2.839844 20.375 2.675781 C 20.207031 2.308594 19.746094 2.191406 19.414062 2.429688 L 19.28125 2.523438 L 19.269531 1.546875 C 19.261719 0.617188 19.257812 0.566406 19.1875 0.441406 C 19.09375 0.269531 18.871094 0.0742188 18.714844 0.03125 C 18.574219 -0.0078125 18.402344 -0.0078125 18.265625 0.0351562 Z M 11.015625 7.414062 C 11.269531 7.546875 11.816406 7.742188 11.9375 7.742188 C 11.976562 7.742188 12.015625 7.753906 12.019531 7.765625 C 12.03125 7.78125 11.996094 7.933594 11.949219 8.105469 C 11.875 8.386719 11.863281 8.480469 11.863281 9.039062 L 11.859375 9.664062 L 11.59375 9.484375 C 11.164062 9.199219 10.78125 9.035156 10.164062 8.871094 C 10.132812 8.867188 10.132812 8.835938 10.167969 8.75 C 10.265625 8.519531 10.328125 8.0625 10.328125 7.578125 C 10.328125 7.316406 10.316406 7.066406 10.300781 7.023438 C 10.28125 6.960938 10.3125 6.972656 10.523438 7.113281 C 10.65625 7.207031 10.878906 7.335938 11.015625 7.414062 Z M 26.671875 7.269531 C 26.625 7.738281 26.703125 8.453125 26.828125 8.753906 C 26.859375 8.835938 26.863281 8.867188 26.832031 8.871094 C 26.210938 9.035156 25.828125 9.199219 25.398438 9.484375 L 25.132812 9.664062 L 25.132812 9.054688 C 25.128906 8.519531 25.121094 8.414062 25.050781 8.136719 C 25.007812 7.96875 24.964844 7.8125 24.964844 7.796875 C 24.964844 7.78125 25.074219 7.742188 25.199219 7.710938 C 25.625 7.601562 26.132812 7.363281 26.539062 7.070312 C 26.621094 7.007812 26.691406 6.960938 26.695312 6.964844 C 26.699219 6.96875 26.6875 7.105469 26.671875 7.269531 Z M 17.710938 18.082031 L 17.699219 19.644531 L 16.363281 18.882812 C 15.625 18.464844 15.007812 18.101562 14.980469 18.078125 C 14.957031 18.050781 14.589844 16.746094 14.167969 15.175781 C 13.742188 13.605469 13.386719 12.296875 13.378906 12.273438 C 13.371094 12.246094 14.34375 13.191406 15.539062 14.371094 L 17.71875 16.519531 Z M 22.835938 15.144531 C 22.410156 16.730469 22.035156 18.050781 22.011719 18.078125 C 21.988281 18.101562 21.367188 18.464844 20.628906 18.882812 L 19.292969 19.644531 L 19.28125 18.082031 L 19.277344 16.519531 L 21.441406 14.382812 C 22.628906 13.203125 23.605469 12.246094 23.609375 12.25 C 23.617188 12.253906 23.269531 13.554688 22.835938 15.144531 Z M 15.539062 20.210938 C 16.28125 20.632812 16.886719 20.988281 16.886719 21 C 16.886719 21.011719 16.277344 21.371094 15.527344 21.796875 L 14.167969 22.570312 L 11.621094 21.898438 C 10.21875 21.527344 8.898438 21.175781 8.6875 21.121094 C 8.46875 21.066406 8.292969 21.011719 8.292969 21 C 8.292969 20.988281 8.703125 20.875 9.199219 20.742188 C 9.695312 20.613281 11.003906 20.261719 12.109375 19.964844 C 13.214844 19.675781 14.132812 19.433594 14.152344 19.433594 C 14.175781 19.4375 14.796875 19.785156 15.539062 20.210938 Z M 23.558594 19.621094 C 23.96875 19.730469 25.027344 20.007812 25.910156 20.246094 C 26.796875 20.476562 27.785156 20.742188 28.113281 20.824219 C 28.433594 20.910156 28.699219 20.988281 28.699219 21.003906 C 28.699219 21.015625 28.664062 21.03125 28.625 21.039062 C 28.542969 21.058594 24.414062 22.148438 23.433594 22.414062 L 22.828125 22.574219 L 21.464844 21.796875 C 20.71875 21.371094 20.105469 21.011719 20.105469 21 C 20.105469 20.988281 22.117188 19.820312 22.8125 19.429688 C 22.816406 19.425781 23.152344 19.511719 23.558594 19.621094 Z M 3.914062 20.132812 C 4.167969 20.386719 4.585938 20.671875 4.96875 20.851562 C 5.121094 20.925781 5.242188 20.988281 5.242188 21 C 5.242188 21.011719 5.125 21.070312 4.980469 21.136719 C 4.613281 21.308594 4.164062 21.613281 3.910156 21.871094 L 3.6875 22.085938 L 3.460938 21.863281 C 3.1875 21.597656 2.8125 21.339844 2.414062 21.152344 C 2.257812 21.078125 2.125 21.011719 2.125 21 C 2.125 20.988281 2.257812 20.921875 2.414062 20.847656 C 2.816406 20.65625 3.191406 20.398438 3.445312 20.144531 C 3.570312 20.023438 3.671875 19.921875 3.683594 19.921875 C 3.691406 19.921875 3.796875 20.015625 3.914062 20.132812 Z M 33.539062 20.144531 C 33.8125 20.410156 34.171875 20.65625 34.578125 20.847656 C 34.738281 20.921875 34.867188 20.988281 34.867188 21 C 34.867188 21.011719 34.738281 21.078125 34.578125 21.152344 C 34.179688 21.339844 33.804688 21.597656 33.53125 21.863281 L 33.304688 22.085938 L 33.085938 21.871094 C 32.828125 21.613281 32.378906 21.308594 32.011719 21.136719 C 31.867188 21.070312 31.75 21.011719 31.75 21 C 31.75 20.988281 31.875 20.925781 32.027344 20.851562 C 32.410156 20.671875 32.828125 20.386719 33.078125 20.132812 C 33.199219 20.015625 33.296875 19.917969 33.300781 19.917969 C 33.304688 19.917969 33.414062 20.019531 33.539062 20.144531 Z M 15.554688 27.617188 C 14.363281 28.796875 13.386719 29.753906 13.382812 29.75 C 13.363281 29.730469 14.960938 23.902344 14.984375 23.898438 C 15 23.890625 15.617188 23.539062 16.355469 23.121094 L 17.699219 22.351562 L 17.710938 23.914062 L 17.71875 25.480469 Z M 20.644531 23.121094 C 21.359375 23.53125 21.96875 23.886719 22 23.917969 C 22.035156 23.949219 22.347656 25.054688 22.824219 26.808594 C 23.246094 28.371094 23.597656 29.675781 23.609375 29.710938 C 23.621094 29.746094 22.652344 28.808594 21.453125 27.628906 L 19.277344 25.480469 L 19.277344 23.929688 C 19.277344 22.984375 19.289062 22.378906 19.304688 22.378906 C 19.324219 22.378906 19.925781 22.710938 20.644531 23.121094 Z M 11.863281 32.949219 C 11.863281 33.519531 11.875 33.613281 11.949219 33.894531 C 11.996094 34.066406 12.03125 34.21875 12.019531 34.230469 C 12.015625 34.246094 11.976562 34.257812 11.9375 34.257812 C 11.816406 34.257812 11.269531 34.453125 11.015625 34.585938 C 10.878906 34.664062 10.65625 34.792969 10.523438 34.886719 C 10.308594 35.027344 10.28125 35.039062 10.304688 34.972656 C 10.316406 34.933594 10.328125 34.671875 10.328125 34.402344 C 10.328125 33.910156 10.269531 33.492188 10.164062 33.246094 C 10.132812 33.164062 10.128906 33.132812 10.164062 33.128906 C 10.785156 32.964844 11.226562 32.773438 11.628906 32.492188 C 11.757812 32.398438 11.859375 32.324219 11.859375 32.324219 C 11.859375 32.320312 11.859375 32.605469 11.863281 32.949219 Z M 25.960938 32.832031 C 26.210938 32.945312 26.421875 33.023438 26.832031 33.128906 C 26.863281 33.132812 26.859375 33.164062 26.828125 33.246094 C 26.726562 33.480469 26.664062 33.910156 26.664062 34.371094 C 26.664062 34.625 26.675781 34.878906 26.6875 34.9375 L 26.714844 35.050781 L 26.46875 34.886719 C 26.335938 34.792969 26.113281 34.664062 25.976562 34.585938 C 25.722656 34.453125 25.175781 34.257812 25.054688 34.257812 C 25.015625 34.257812 24.980469 34.246094 24.972656 34.230469 C 24.964844 34.21875 24.996094 34.066406 25.042969 33.894531 C 25.117188 33.613281 25.128906 33.519531 25.128906 32.960938 L 25.132812 32.335938 L 25.398438 32.515625 C 25.542969 32.613281 25.800781 32.753906 25.960938 32.832031 Z M 25.960938 32.832031 "/>
</g>
</svg>
